<svg xmlns="http://www.w3.org/2000/svg" viewBox="0 0 128 128" role="img" aria-label="Antigravity">
  <rect width="128" height="128" rx="30" fill="#fafbff"/>
  <path d="M15 106C28 75 39 42 59 26c8-7 19-6 28 4 15 15 23 43 27 76H90c-5-29-12-45-24-45-15 0-25 19-33 45z" fill="url(#agMain)"/>
  <path d="M44 83c6-16 13-25 22-25 10 0 18 9 23 25H70c-9 0-17 0-26 0z" fill="#fafbff"/>
  <defs>
    <linearGradient id="agMain" x1="22" x2="103" y1="106" y2="26" gradientUnits="userSpaceOnUse">
      <stop offset="0" stop-color="#2fb7f3"/>
      <stop offset=".44" stop-color="#4773f2"/>
      <stop offset=".7" stop-color="#51d66b"/>
      <stop offset="1" stop-color="#ff6740"/>
    </linearGradient>
  </defs>
</svg>
