<svg xmlns="http://www.w3.org/2000/svg" viewBox="0 0 128 128" role="img" aria-label="Antigravity">
  <rect width="128" height="128" rx="30" fill="#fbfcff"/>
  <path d="M14 106C28 75 39 42 60 25c9-7 20-6 29 5 14 17 22 45 25 76H91c-5-28-13-45-25-45-15 0-25 19-33 45z" fill="url(#antigravityA)"/>
  <path d="M44 83c6-16 13-25 22-25 10 0 18 9 23 25H70c-9 0-17 0-26 0z" fill="#fbfcff"/>
  <defs>
    <linearGradient id="antigravityA" x1="20" y1="106" x2="105" y2="25" gradientUnits="userSpaceOnUse">
      <stop offset="0" stop-color="#2cb9f4"/>
      <stop offset=".43" stop-color="#4774f2"/>
      <stop offset=".68" stop-color="#4fd66b"/>
      <stop offset="1" stop-color="#ff6a3d"/>
    </linearGradient>
  </defs>
</svg>
